<svg width="32" height="32" viewBox="0 0 32 32" fill="none" xmlns="http://www.w3.org/2000/svg">
  <path d="M16 2L4 7v9c0 8.4 5.12 16.24 12 18 6.88-1.76 12-9.6 12-18V7L16 2z" fill="#0B0D11" stroke="#00E87B" stroke-width="1.5"/>
  <path d="M16 5L7 8.5v7.5c0 6.3 3.84 12.18 9 13.5 5.16-1.32 9-7.2 9-13.5V8.5L16 5z" fill="#13161D"/>
  <path d="M16 5L7 8.5v7.5c0 6.3 3.84 12.18 9 13.5V5z" fill="#1A1E27"/>
  <rect x="12" y="12" width="8" height="9" rx="1.5" fill="none" stroke="#00E87B" stroke-width="1.5"/>
  <circle cx="16" cy="16" r="1.5" fill="#00E87B"/>
  <path d="M14 12V10a2 2 0 0 1 4 0v2" stroke="#00E87B" stroke-width="1.5" stroke-linecap="round"/>
</svg>
